<?xml version="1.0" encoding="UTF-8" standalone="no"?>

<svg
   version="1.1"
   id="PP"
   width="476.92416"
   height="28.034016"
   viewBox="0 0 476.92416 28.034016"
   xmlns:xlink="http://www.w3.org/1999/xlink"
   xmlns="http://www.w3.org/2000/svg"
   xmlns:svg="http://www.w3.org/2000/svg">
  <g
     id="pp"
     transform="translate(-2.4901352,-4.5819282)">
    <path
       style="fill:#000"
       d="m 169.12,32.266566 c -1.20379,-0.665794 -2.14338,-1.706621 -2.92263,-3.23755 -0.55532,-1.090981 -1.26588,-1.842257 -2.4724,-2.614056 -2.34091,-1.497464 -3.61556,-3.060112 -4.23543,-5.192393 -1.14622,-3.942834 0.50406,-8.706859 3.55046,-10.249503 1.37558,-0.696569 2.68536,-1.9918008 3.38038,-3.3428158 2.11576,-4.11276 8.12779,-4.050573 10.24832,0.1060062 0.56203,1.1016757 0.76483,1.2545931 1.43932,1.0853066 0.43181,-0.1083778 1.08674,-0.035626 1.45539,0.1616706 0.53496,0.2863011 0.63622,0.5685717 0.50159,1.3981824 -0.16527,1.018435 -0.13314,1.050665 1.58827,1.593291 1.37321,0.432865 1.89815,0.793153 2.40345,1.649562 0.35557,0.602653 0.83119,1.095733 1.05692,1.095733 0.22573,0 0.82351,0.417085 1.32839,0.926856 0.63681,0.642974 1.45703,1.031831 2.67797,1.269595 2.06823,0.402763 8.54935,0.545907 9.36393,0.206814 0.31016,-0.129114 1.03016,-0.126623 1.6,0.0055 1.15171,0.267108 4.48598,0.340614 11.43607,0.252115 7.50349,-0.09554 18.26051,0.131929 20.16,0.426315 1.59126,0.246617 1.76,0.349468 1.76,1.072769 0,0.733292 -0.13341,0.808363 -1.6,0.900305 -1.61054,0.100966 -3.04,0.972383 -3.04,1.853219 0,0.221079 -0.324,0.447978 -0.72,0.504219 -1.09796,0.155935 -0.96879,1.353631 0.16,1.483512 l 0.88,0.101255 v 2.858745 2.858744 h -4.32 -4.32 v -2.88792 c 0,-2.854033 0.0103,-2.891942 0.88,-3.230673 l 0.88,-0.342754 -0.72,-0.488357 c -0.396,-0.268597 -0.72,-0.755474 -0.72,-1.08195 0,-1.058129 -1.24387,-1.58102 -2.88,-1.210672 -0.81024,0.183404 -4.93864,0.30156 -9.44,0.270175 -4.4,-0.03068 -8.468,-0.04049 -9.04,-0.02181 -0.572,0.01868 -1.436,0.02041 -1.92,0.0038 -0.484,-0.01657 -1.24,-0.01318 -1.68,0.0075 -0.44,0.02071 -1.88,0.03065 -3.2,0.02211 -4.38095,-0.02836 -5.01954,0.179779 -7.60419,2.478471 -1.29216,1.149199 -2.99727,2.325447 -3.84,2.648972 -1.33691,0.513241 -1.50443,0.682596 -1.4194,1.434919 0.13,1.150132 -0.44677,1.758126 -1.66783,1.758126 -0.81259,0 -1.25708,0.291935 -2.24627,1.475319 -0.67826,0.811425 -1.71213,1.675425 -2.29748,1.92 -1.26697,0.529373 -3.55034,0.565974 -4.44483,0.07125 z m 4.64835,-2.106567 c 1.09629,-0.98598 1.88905,-2.933935 1.66693,-4.095918 -0.25527,-1.33537 -1.54327,-2.437546 -2.71594,-2.324111 -1.20142,0.116215 -1.60668,1.038862 -0.57484,1.308697 0.90148,0.23574 0.88515,1.685912 -0.0245,2.172719 -1.08102,0.578546 -2.33344,-0.53002 -2.45653,-2.174381 -0.089,-1.18848 0.0213,-1.389698 1.41381,-2.579986 l 1.51031,-1.290972 -1.09381,-0.666828 c -1.39733,-0.851857 -2.89973,-0.862484 -3.65685,-0.02587 -0.56462,0.623891 -0.56128,0.665655 0.1104,1.380624 1.11354,1.185311 0.71941,2.456022 -0.76177,2.456022 -0.84869,0 -2.12024,1.298578 -1.48775,1.51937 0.59124,0.20639 0.94741,0.676855 1.75491,2.318048 1.38139,2.807584 4.36769,3.754494 6.31559,2.002582 z m 52.08045,-2.498145 c 0.74561,-0.522244 0.99552,-2.168366 0.38635,-2.544851 -0.17867,-0.110422 -0.53868,-0.712541 -0.80003,-1.338041 -0.39997,-0.957265 -0.55115,-1.074225 -0.95515,-0.738936 C 224.21599,23.259112 224,23.628501 224,23.860891 c 0,0.232389 -0.29937,0.929928 -0.66528,1.550086 l -0.66527,1.12756 0.81073,0.810731 c 0.94056,0.940561 1.38779,0.999582 2.36862,0.312586 z m -45.12749,-3.404225 c 2.55225,-0.948142 3.01104,-2.597685 1.01026,-3.63233 -0.85058,-0.439854 -0.96207,-0.438156 -1.13685,0.01731 -0.10658,0.277745 -0.10524,0.593532 0.003,0.701748 0.3446,0.344596 -0.48907,1.055641 -1.23769,1.055641 -0.3969,0 -0.9009,-0.215999 -1.12,-0.479999 -0.61332,-0.739005 -3.2,-0.563935 -3.2,0.21658 0,0.169459 0.44485,0.954672 0.98855,1.744918 1.11139,1.615354 1.31337,1.631543 4.69276,0.376131 z M 165.33853,21.76 c 0.0518,-1.556514 -0.0407,-1.841734 -0.8,-2.466929 l -0.85853,-0.706928 0.88288,-0.733072 c 0.79315,-0.658556 0.8706,-0.900039 0.762,-2.375675 C 165.16993,13.37192 164.99358,13.12 163.6746,13.12 c -0.94147,0 -1.19448,0.182747 -1.88289,1.36 -1.65144,2.824156 -1.66856,5.799534 -0.0476,8.265685 0.71644,1.089983 0.8207,1.136658 2.14446,0.96 l 1.3914,-0.185686 z m 11.90429,-2.995204 c 0.33096,-0.39878 0.27203,-0.563111 -0.34141,-0.951976 -1.37647,-0.872575 -2.68238,-0.94427 -4.28521,-0.235262 -1.32797,0.587424 -1.44646,0.720408 -1.05846,1.187921 0.24031,0.289546 1.01412,0.774845 1.71959,1.078442 1.22049,0.525233 1.33801,0.524139 2.42408,-0.02258 0.62777,-0.316014 1.32141,-0.791461 1.54141,-1.05655 z m -6.05756,-2.160975 1.10526,-0.673786 -0.99298,-0.845018 c -1.80494,-1.535982 -2.13636,-2.920838 -1.03431,-4.321862 0.77623,-0.9868267 1.89263,-1.0917148 2.65489,-0.249433 0.65526,0.724057 0.42688,1.44103 -0.60942,1.913199 -0.8708,0.396764 -0.77731,1.145396 0.20895,1.673227 1.40933,0.754251 3.15921,-1.447689 3.16115,-3.977795 0.001,-1.3834595 -0.13773,-1.6965766 -1.24115,-2.8000002 -1.06543,-1.065423 -1.44222,-1.2423529 -2.64572,-1.2423529 -0.96027,0 -1.766,0.2464197 -2.55191,0.7804593 -1.08553,0.7376364 -2.20002,2.4756796 -2.20002,3.4309268 0,0.239065 -0.288,0.614523 -0.64,0.83435 -0.94407,0.589583 -0.79777,0.889621 0.8,1.640662 1.14583,0.538602 1.44,0.841377 1.44,1.482101 0,0.548368 -0.25519,0.921493 -0.8,1.169726 -0.93192,0.424609 -0.98566,0.6704 -0.29714,1.358917 0.70223,0.702231 2.3335,0.624607 3.6424,-0.173321 z m 11.52348,-0.262784 c 0.53157,-0.993241 0.38544,-1.891427 -0.38874,-2.389472 -0.7763,-0.499408 -4.32563,-1.798047 -4.86891,-1.781451 -0.34143,0.01043 -2.09109,2.685272 -2.09109,3.196817 0,0.158058 0.57918,0.460903 1.28706,0.672989 1.1825,0.354287 1.34087,0.327843 1.94958,-0.325533 0.9081,-0.974723 2.01205,-0.786522 2.14462,0.365613 0.0791,0.687246 0.26936,0.88 0.86874,0.88 0.43128,0 0.91259,-0.27114 1.09874,-0.618963 z M 49.330249,31.644224 C 48.029905,31.257747 46.258289,29.398021 42.969057,24.966661 40.096302,21.096393 38.525556,19.926376 36,19.775551 L 34.4,19.68 34.31119,24.445079 c -0.07932,4.255967 -0.02004,4.897021 0.554864,6 l 0.643677,1.23492 H 32.63957 29.76941 l 0.6341,-1.04 c 0.599309,-0.982937 0.634101,-1.636968 0.634101,-11.919999 0,-10.2830322 -0.03479,-10.9370633 -0.634101,-11.9200002 l -0.6341,-1.0399999 h 4.446786 c 6.716042,0 9.895158,1.24184 11.298041,4.4132901 1.342253,3.034384 0.04578,6.078481 -3.265721,7.667847 l -1.933372,0.927929 1.538049,0.996621 c 1.509741,0.978279 3.014615,2.581839 6.440965,6.863348 1.839203,2.298237 3.458037,3.59167 4.952774,3.957216 l 0.926929,0.226686 -0.773434,0.405243 c -1.154609,0.604961 -2.865597,0.784058 -4.070175,0.426044 z M 40.248729,16.593238 C 41.905479,15.795829 42.56,14.642469 42.56,12.520443 42.56,11.277512 42.37959,10.714698 41.735984,9.9498169 40.757017,8.7863807 38.420213,7.9999998 35.94192,7.9999998 H 34.24 v 4.5866662 c 0,2.522667 0.108,4.697455 0.24,4.832864 0.414023,0.424712 4.337039,-0.137207 5.768729,-0.826292 z m 54.545617,15.006761 c -0.178211,-0.22 -2.500308,-4.756 -5.160215,-10.079999 -2.659908,-5.324 -4.907732,-9.68 -4.995164,-9.68 -0.08743,0 -0.158967,3.939905 -0.158967,8.755345 v 8.755344 l 0.790356,1.164655 0.790356,1.164655 -3.110356,-0.02526 c -1.710696,-0.01389 -2.926506,-0.09918 -2.7018,-0.189518 0.224705,-0.09034 0.698276,-0.732156 1.05238,-1.426257 0.612401,-1.200404 0.639316,-1.772962 0.551445,-11.730481 C 81.760923,7.9446286 81.752586,7.8296054 81.01821,6.7999998 l -0.74179,-1.0399999 2.50179,0.00676 2.50179,0.00676 4.96,9.7727991 c 2.728,5.375039 5.04646,9.831182 5.152134,9.90254 0.105674,0.07136 2.327834,-4.329445 4.938136,-9.779562 l 4.746,-9.9093025 h 2.49222 2.49222 L 109.27036,6.9246494 108.48,8.0893044 V 18.72 29.350689 l 0.79036,1.164655 0.79035,1.164655 h -3.2188 -3.2188 l 0.82844,-0.984552 c 0.45565,-0.541503 0.82996,-1.369503 0.8318,-1.84 0.002,-0.470496 0.0379,-4.563497 0.08,-9.095558 0.0422,-4.53206 -10e-4,-8.24006 -0.0966,-8.24 -0.0953,6.1e-5 -2.39108,4.608111 -5.10177,10.240111 -2.71069,5.631999 -4.9551,10.239999 -4.987576,10.239999 -0.03248,0 -0.204858,-0.18 -0.383068,-0.4 z m 206.937994,0.09342 c -1.64093,-0.495796 -2.6305,-1.466468 -5.80345,-5.692591 -3.39796,-4.52581 -4.62063,-5.60258 -6.96889,-6.137288 -2.74222,-0.624414 -2.56,-0.947657 -2.56,4.5412 0,4.274952 0.08,5.03395 0.64062,6.08 l 0.64062,1.195261 h -2.87591 -2.87592 l 0.6341,-1.04 c 0.59931,-0.982937 0.6341,-1.636968 0.6341,-11.919999 0,-10.2830322 -0.0348,-10.9370633 -0.6341,-11.9200002 l -0.6341,-1.0399999 h 4.44678 c 6.71605,0 9.89516,1.24184 11.29804,4.4132901 1.34347,3.03713 0.0461,6.078331 -3.27249,7.671096 l -1.94014,0.931178 1.46589,0.926577 c 1.44575,0.913853 2.71202,2.263626 6.31876,6.735461 1.94875,2.416166 3.64179,3.777196 5.16068,4.148649 l 0.92693,0.226686 -0.76693,0.391392 c -1.08826,0.555377 -2.86511,0.782008 -3.83459,0.489088 z m -9.40535,-15.06061 c 1.66128,-0.799296 2.39301,-2.056505 2.39301,-4.111514 0,-1.414316 -0.13754,-1.757501 -1.08348,-2.7034426 -1.2114,-1.2113958 -3.0857,-1.8178506 -5.61822,-1.8178506 H 286.4 v 4.5866662 c 0,2.522667 0.108,4.697455 0.24,4.832864 0.4027,0.413097 4.31939,-0.128727 5.68699,-0.786723 z m 28.69202,14.887353 c -6.04991,-1.699348 -9.36084,-6.852122 -8.93535,-13.905982 0.21808,-3.615316 1.11781,-5.926548 3.18956,-8.1933757 2.77382,-3.0349966 5.96203,-4.1707763 10.97206,-3.9087197 5.17443,0.2706564 8.76281,2.5641257 10.82632,6.9195174 0.96489,2.036558 1.00823,2.301003 1.00453,6.1284 -0.003,3.470231 -0.10561,4.254289 -0.772,5.919999 -1.06637,2.665506 -3.9672,5.550352 -6.58413,6.547867 -2.48321,0.946543 -7.22681,1.187265 -9.70099,0.492294 z m 7.33324,-2.450915 c 2.72959,-0.930366 5.0716,-3.441083 6.07185,-6.509246 0.22952,-0.703999 0.40793,-2.503999 0.39649,-3.999999 -0.0362,-4.727339 -1.88611,-8.064327 -5.43256,-9.7994439 -2.33332,-1.1415878 -5.85815,-1.2314228 -8.15576,-0.2078605 -4.16938,1.8574164 -6.53669,6.9266564 -5.69505,12.1951074 0.86258,5.399496 4.43462,8.682163 9.45503,8.68907 1.24974,0.0017 2.76174,-0.163713 3.36,-0.367628 z m 94.57741,2.467691 c -1.64069,-0.589928 -2.37707,-1.325334 -5.33662,-5.32955 -3.85081,-5.210092 -4.91346,-6.07043 -8.07304,-6.536054 l -1.52,-0.224 10e-4,5.076333 c 0.001,4.496085 0.0737,5.195211 0.63529,6.116334 l 0.6341,1.04 h -2.9121 -2.9121 l 0.59681,-0.88 c 0.54819,-0.808324 0.60462,-1.762213 0.69276,-11.711373 0.0919,-10.369449 0.0682,-10.8846229 -0.55487,-12.0799995 l -0.65082,-1.2486266 h 4.13912 c 4.94244,0 6.74412,0.3404772 8.99224,1.6993344 2.02386,1.2233057 2.93222,2.7647517 2.93222,4.9758517 0,2.625679 -1.58847,4.704513 -4.42382,5.789452 l -1.56983,0.60077 0.88883,0.342732 c 1.28351,0.494918 3.81304,2.955856 6.49822,6.322007 2.46492,3.090033 3.73645,4.23116 5.57295,5.001393 l 1.12,0.469731 -0.8,0.318595 c -1.55138,0.617826 -2.73313,0.694728 -3.95034,0.257068 z m -9.36778,-14.708897 c 1.58551,-0.675996 2.49146,-1.883823 2.68219,-3.575949 0.3507,-3.111376 -1.70343,-4.9091547 -5.92407,-5.1847601 L 408,7.9158352 v 4.6287488 c 0,2.545812 0.108,4.739537 0.24,4.874946 0.33485,0.343499 4.11407,-0.07654 5.32188,-0.591491 z M 3.27042,30.693328 C 3.9965338,29.711345 4,29.654461 4,18.720307 V 7.7339559 L 3.2450676,6.7126869 2.4901353,5.6914179 7.5650676,5.8379115 C 13.152331,5.999194 14.721929,6.3704738 16.696194,7.99783 18.246687,9.2758769 18.944,10.871467 18.944,13.14125 18.944,17.652702 15.119634,20.48 9.0171835,20.48 H 6.9688301 l 0.1194211,4.618378 c 0.1084633,4.194611 0.186013,4.70845 0.8451649,5.6 l 0.7257438,0.981621 H 5.6 2.5408401 Z m 9.883899,-13.295129 c 0.595928,-0.348041 1.42074,-1.129016 1.832914,-1.735501 1.02335,-1.505785 0.877644,-4.355918 -0.287335,-5.62053 C 13.454374,8.6901243 11.629693,8.014933 9.2,8.0070277 l -2.16,-0.00703 v 5.1611153 5.161115 l 2.515406,-0.145614 c 1.715802,-0.09933 2.859834,-0.346772 3.598913,-0.778417 z M 63.11042,30.69319 C 63.836531,29.711072 63.84,29.654144 63.84,18.72 63.84,7.7858547 63.836531,7.7289274 63.11042,6.7468096 L 62.38084,5.7599999 H 65.44 68.49916 L 67.76958,6.7468096 C 67.043469,7.7289274 67.04,7.7858547 67.04,18.72 c 0,10.934144 0.0035,10.991072 0.72958,11.97319 l 0.72958,0.986809 H 65.44 62.38084 Z m 59.42635,0.143655 C 123.17924,30.020086 123.2,29.640746 123.2,18.72 123.2,7.7992535 123.17924,7.4199129 122.53677,6.6031546 l -0.66322,-0.8431547 h 6.74322 6.74323 v 1.9092078 1.9092079 l -1.17512,-0.6933384 c -0.98917,-0.5836224 -1.68544,-0.6958496 -4.4,-0.7092079 L 126.56,8.1599998 126.47121,12.72 l -0.0888,4.56 2.64878,-0.0076 c 2.46538,-0.0071 3.8257,-0.192528 5.60879,-0.764525 0.69702,-0.223598 0.72,-0.163906 0.72,1.870596 0,1.15586 -0.036,2.099395 -0.08,2.096746 -0.044,-0.0026 -0.656,-0.21233 -1.36,-0.465955 -0.77063,-0.277628 -2.525,-0.466725 -4.40855,-0.475182 l -3.12856,-0.01404 0.0886,4.719999 0.0885,4.72 4.48,-0.02454 c 3.37607,-0.01849 4.77456,-0.151983 5.67539,-0.541746 l 1.19539,-0.51721 -0.95999,1.901746 -0.96,1.901746 h -7.05862 -7.05862 z M 255.43042,30.69319 C 256.15653,29.711072 256.16,29.654144 256.16,18.72 256.16,7.7858547 256.157,7.7289274 255.43042,6.7468096 l -0.72958,-0.9868097 h 4.26235 c 6.61526,0 9.73828,1.1230515 11.37967,4.0921814 1.2825,2.3199417 0.83947,6.0531957 -0.94359,7.9511767 -1.27552,1.35773 -4.3234,2.430386 -7.40504,2.606093 l -2.85228,0.16263 0.10903,4.567859 c 0.0993,4.158946 0.17433,4.656134 0.8386,5.553959 l 0.72958,0.9861 H 257.76 254.70084 Z m 9.8839,-13.294991 C 266.92744,16.456087 267.84,14.910317 267.84,13.12 c 0,-3.11272 -2.53568,-5.1200002 -6.4678,-5.1200002 H 259.2 v 5.1611152 5.161115 l 2.51541,-0.145614 c 1.7158,-0.09933 2.85983,-0.346772 3.59891,-0.778417 z m 85.08919,13.2418 c 0.59982,-0.983784 0.63416,-1.638741 0.63529,-12.116845 0.001,-10.8630726 -0.0121,-11.093785 -0.68927,-11.9546291 l -0.69046,-0.8777844 5.09758,0.1146297 c 5.02666,0.1130348 5.12771,0.1294666 7.26341,1.1810556 3.05938,1.5063935 3.89994,2.8283791 3.89994,6.1335742 0,3.277904 -0.84784,4.630839 -3.81843,6.093258 -1.73845,0.855838 -2.56838,1.053709 -5.00137,1.192432 l -2.91705,0.166323 0.10842,4.673993 c 0.0908,3.915325 0.2053,4.816832 0.70523,5.553993 l 0.59681,0.88 h -2.9121 -2.9121 z m 10.24447,-13.487295 c 1.62541,-1.075647 2.36136,-2.663669 2.1409,-4.619608 -0.32261,-2.8621632 -2.6731,-4.5330962 -6.37668,-4.5330962 H 354.24 v 5.1611152 5.161115 l 2.54279,-0.147199 c 2.08471,-0.120683 2.78101,-0.30485 3.86519,-1.022327 z m 16.95553,13.487295 c 0.59931,-0.982937 0.6341,-1.636968 0.6341,-11.919999 0,-10.2830322 -0.0348,-10.9370633 -0.6341,-11.9200002 l -0.6341,-1.0399999 h 6.63529 6.6353 V 7.6220066 9.4840133 L 389.14488,8.837876 c -0.89688,-0.5291729 -1.67889,-0.6490099 -4.32,-0.6620067 L 381.6,8.1599998 381.51121,12.72 l -0.0888,4.56 2.64878,-0.0076 c 2.43179,-0.007 3.83253,-0.19427 5.52879,-0.739134 0.59536,-0.191239 0.64,-0.06077 0.64,1.870596 0,1.141895 0,2.074614 0,2.072709 0,-0.0019 -0.70689,-0.217905 -1.57086,-0.48 -0.88233,-0.267663 -2.81091,-0.476536 -4.4,-0.476536 H 381.44 v 4.840304 4.840304 L 386,29.051736 c 3.22801,-0.105386 4.91533,-0.301344 5.77647,-0.670856 l 1.21647,-0.521985 -1.05034,1.910552 -1.05033,1.910552 h -6.96143 -6.96143 z M 439.40459,30.4586 c 0.56112,-1.134112 0.59827,-1.974539 0.51986,-11.76 L 439.84,8.1599998 436.64,8.272527 c -1.76,0.06189 -3.668,0.306542 -4.24,0.5436714 -1.21276,0.5027652 -1.23414,0.4405358 -0.7016,-2.0425986 l 0.3384,-1.5779015 1.1816,0.2745167 c 1.53622,0.3569035 14.58698,0.3569035 16.1232,0 l 1.1816,-0.2745167 0.3384,1.5779015 c 0.53255,2.4831715 0.51117,2.5453881 -0.7016,2.0424806 -0.572,-0.2371942 -2.336,-0.4818464 -3.92,-0.5436714 l -2.88,-0.1124092 -0.0844,10.5334662 c -0.0802,9.99745 -0.0519,10.595881 0.55486,11.76 l 0.63931,1.226533 h -2.83472 -2.83472 z m 27.79892,0.181399 c 0.55825,-0.915599 0.63424,-1.619542 0.63529,-5.885038 l 0.001,-4.845039 -3.12,-5.825484 c -1.716,-3.204017 -3.59922,-6.3877492 -4.18494,-7.0749614 l -1.06493,-1.2494767 h 2.84951 2.84952 l -0.1382,0.9415877 c -0.10473,0.7135755 0.43175,2.0308566 2.21542,5.4397754 1.29449,2.474003 2.45691,4.498288 2.58315,4.498412 0.2414,2.36e-4 3.49596,-5.396604 4.47723,-7.4243172 0.31528,-0.6514981 0.57324,-1.6954981 0.57324,-2.32 V 5.7599999 h 2.26725 2.26726 l -1.10161,1.5199999 c -0.60589,0.836 -2.49015,4.0011492 -4.18726,7.0336652 L 471.04,19.82733 v 4.578673 c 0,3.946899 0.0883,4.751885 0.64,5.833996 0.352,0.690428 0.64,1.296875 0.64,1.347662 0,0.05079 -1.29388,0.09234 -2.8753,0.09234 h -2.87529 z"
       id="pp-path" />
  </g>
</svg>
